<svg width="24" height="22" viewBox="0 0 24 22" fill="none" xmlns="http://www.w3.org/2000/svg">
<path fill-rule="evenodd" clip-rule="evenodd" d="M12.3909 1.91523C12.3909 1.35566 12.3909 1.07588 12.217 0.995327C12.0431 0.914772 11.8297 1.09571 11.4029 1.45758L0.688119 10.5424C0.437544 10.7548 0.312256 10.861 0.312256 11C0.312256 11.139 0.437544 11.2452 0.688119 11.4576L11.4029 20.5424C11.8297 20.9043 12.0431 21.0852 12.217 21.0047C12.3909 20.9241 12.3909 20.6443 12.3909 20.0848V15.4469C12.3909 15.164 12.3909 15.0226 12.4787 14.9347C12.5666 14.8469 12.708 14.8469 12.9909 14.8469H23.0878C23.3707 14.8469 23.5121 14.8469 23.6 14.759C23.6878 14.6711 23.6878 14.5297 23.6878 14.2469V7.75315C23.6878 7.47031 23.6878 7.32889 23.6 7.24102C23.5121 7.15315 23.3707 7.15315 23.0878 7.15315H12.9909C12.708 7.15315 12.5666 7.15315 12.4787 7.06528C12.3909 6.97742 12.3909 6.83599 12.3909 6.55315V1.91523Z" fill="url(#paint0_linear_851_2068)"/>
<defs>
<linearGradient id="paint0_linear_851_2068" x1="-5.33243" y1="27.3525" x2="29.1636" y2="25.7632" gradientUnits="userSpaceOnUse">
<stop offset="0.188809" stop-color="#99CEFF"/>
<stop offset="1" stop-color="#3F94E1"/>
</linearGradient>
</defs>
</svg>
