<svg width="25" height="27" viewBox="0 0 25 27" fill="none" xmlns="http://www.w3.org/2000/svg">
<path fill-rule="evenodd" clip-rule="evenodd" d="M16.3379 3.34989C16.2394 3.04687 15.9824 2.83013 15.667 2.78428L13.8831 2.52507L13.0855 0.908703C12.9444 0.622944 12.6588 0.445435 12.3401 0.445435C12.0215 0.445435 11.7359 0.622944 11.5948 0.908703L10.7971 2.52512L9.01327 2.78432C8.69791 2.83013 8.4408 3.04687 8.34232 3.34998C8.24384 3.65309 8.32445 3.97956 8.55262 4.20197L9.84343 5.46017L9.5387 7.23688C9.48488 7.55095 9.61158 7.86241 9.86941 8.04974C10.1272 8.23706 10.4626 8.26123 10.7447 8.11294L12.3402 7.27416L13.9357 8.11294C14.0584 8.17748 14.1912 8.20932 14.3232 8.20932C14.4948 8.20932 14.6653 8.15555 14.8111 8.04964C15.0689 7.86231 15.1955 7.55076 15.1417 7.23679L14.837 5.46017L16.1279 4.20187C16.3558 3.97941 16.4364 3.65295 16.3379 3.34989ZM0.137695 16.7792C0.137695 15.7424 0.847447 14.8989 1.71988 14.8989H6.36391V26.0036H1.71988C0.847447 26.0036 0.137695 25.1601 0.137695 24.1233V16.7792ZM18.3167 18.2895H22.9607C23.8331 18.2895 24.5429 19.133 24.5429 20.1698V24.1232C24.5429 25.1601 23.8332 26.0036 22.9607 26.0036H18.3167V18.2895ZM15.3025 10.6414H9.37735C8.50492 10.6414 7.79517 11.4849 7.79517 12.5217V26.0037H16.8847V12.5217C16.8847 11.4848 16.1749 10.6414 15.3025 10.6414Z" fill="url(#paint0_linear_873_1151)"/>
<defs>
<linearGradient id="paint0_linear_873_1151" x1="-10.7375" y1="29.1292" x2="15.9354" y2="39.5764" gradientUnits="userSpaceOnUse">
<stop offset="0.188809" stop-color="#99CEFF"/>
<stop offset="1" stop-color="#3F94E1"/>
</linearGradient>
</defs>
</svg>
