<svg width="26" height="25" viewBox="0 0 26 25" fill="none" xmlns="http://www.w3.org/2000/svg">
<circle cx="13" cy="12.3161" r="11.6791" stroke="url(#paint0_linear_622_1361)" stroke-width="1.27408"/>
<path d="M11.8061 17.6467C11.8476 16.9597 11.889 16.3142 11.9305 15.6628C12.0844 13.0393 12.2325 10.4218 12.3924 7.79838C12.4042 7.57927 12.345 7.46675 12.1555 7.33055C11.8712 7.12328 11.6521 6.82125 11.3975 6.56661C11.3323 6.49554 11.2435 6.40079 11.1665 6.40079C10.3078 6.38895 9.44916 6.39487 8.56086 6.39487C8.59047 6.49554 8.61415 6.57845 8.64376 6.65544C9.24781 8.16555 9.84001 9.68158 10.4618 11.1858C10.6336 11.6062 10.6395 12.0089 10.5388 12.4294C10.1835 13.8447 8.87472 14.7863 7.42976 14.6797C6.02624 14.5791 4.86553 13.448 4.72341 12.0267C4.69972 11.8016 4.74117 11.547 4.82408 11.3338C5.55841 9.46246 6.3105 7.59703 7.05667 5.72569C7.22249 5.30522 7.37646 5.20455 7.8443 5.20455C8.9221 5.20455 9.99398 5.19863 11.0718 5.21047C11.2554 5.21047 11.3442 5.15125 11.433 4.99136C11.7647 4.36955 12.2976 4.02607 13.0083 4.032C13.7071 4.03792 14.2341 4.36955 14.5598 4.99136C14.6546 5.17494 14.7612 5.21639 14.9507 5.21047C16.0285 5.20455 17.1004 5.20455 18.1782 5.20455C18.6164 5.20455 18.7704 5.31115 18.9362 5.71976C19.6824 7.58519 20.4285 9.45654 21.1806 11.322C21.3346 11.6951 21.2931 12.0622 21.1984 12.4235C20.849 13.8388 19.5343 14.7804 18.0893 14.6738C16.674 14.5672 15.5074 13.4243 15.383 11.9912C15.3652 11.772 15.4067 11.5352 15.4837 11.3279C16.0877 9.78225 16.7095 8.24845 17.3195 6.70874C17.355 6.61991 17.3905 6.52515 17.432 6.40671C17.3372 6.40079 17.2662 6.38895 17.1951 6.38895C16.4371 6.38895 15.6732 6.38895 14.9152 6.38303C14.7493 6.38303 14.6724 6.44225 14.5658 6.57253C14.3407 6.86271 14.0742 7.12328 13.79 7.35423C13.6656 7.45491 13.5827 7.52005 13.5945 7.69771C13.7663 10.4929 13.9321 13.294 14.0979 16.0892C14.1275 16.5925 14.1512 17.09 14.1867 17.6348C14.4947 17.6348 14.7849 17.6289 15.081 17.6348C15.6199 17.6467 16.1706 17.6348 16.7036 17.6999C17.4202 17.7829 17.734 18.1796 17.7399 18.9021C17.7399 19.2574 17.7459 19.6128 17.7399 19.9681C17.734 20.3589 17.5031 20.5958 17.1063 20.5958C14.3703 20.6017 11.6403 20.6017 8.90433 20.5958C8.49571 20.5958 8.27068 20.3589 8.26476 19.9444C8.25884 19.5891 8.25884 19.2337 8.26476 18.8784C8.27068 18.1915 8.58454 17.7829 9.26557 17.7118C9.89923 17.6407 10.5447 17.6585 11.1843 17.6407C11.3738 17.6467 11.5751 17.6467 11.8061 17.6467ZM9.15306 11.1206C8.66153 9.88884 8.18185 8.6926 7.66664 7.40753C7.15142 8.6926 6.67174 9.89477 6.18022 11.1206C7.18103 11.1206 8.1404 11.1206 9.15306 11.1206ZM18.3677 7.49636C18.344 7.49636 18.3144 7.49636 18.2907 7.49636C17.811 8.69852 17.3313 9.90069 16.8457 11.1088C17.8465 11.1088 18.8177 11.1088 19.8126 11.1088C19.3211 9.88884 18.8414 8.6926 18.3677 7.49636Z" fill="url(#paint1_linear_622_1361)"/>
<defs>
<linearGradient id="paint0_linear_622_1361" x1="7.59895" y1="30.4706" x2="27.3439" y2="-2.3866" gradientUnits="userSpaceOnUse">
<stop stop-color="#6FA9DE"/>
<stop offset="1" stop-color="#5697D2"/>
</linearGradient>
<linearGradient id="paint1_linear_622_1361" x1="9.36749" y1="24.5273" x2="22.6493" y2="2.42814" gradientUnits="userSpaceOnUse">
<stop stop-color="#4A8BC6"/>
<stop offset="1" stop-color="#5697D2"/>
</linearGradient>
</defs>
</svg>
