<svg width="28" height="25" viewBox="0 0 28 25" fill="none" xmlns="http://www.w3.org/2000/svg">
<g clip-path="url(#clip0_851_1843)">
<path d="M28.3934 13.1602L24.4369 3.91116C24.5151 3.70177 24.5601 3.47606 24.5601 3.23994C24.5601 2.17916 23.6998 1.31984 22.6395 1.31984C21.9975 1.31984 21.4313 1.63565 21.0828 2.11976H16.6545C16.2174 1.0862 15.1928 0.360535 13.9998 0.360535C12.8064 0.360535 11.7827 1.0862 11.3462 2.12075H6.9179C6.56893 1.63664 6.00216 1.32083 5.36014 1.32083C4.29986 1.32083 3.44054 2.18015 3.44054 3.24093C3.44054 3.47705 3.48558 3.70227 3.56379 3.91215L-0.392728 13.1602H-0.399658C-0.399658 16.1639 2.17978 18.6002 5.36064 18.6002C8.54249 18.6002 11.1204 16.1639 11.1204 13.1602H11.1135L7.34954 4.36062H11.3462C11.5664 4.88136 11.9357 5.32388 12.4 5.63474V19.8803H6.64021V21.1604C6.64021 22.9206 8.08016 24.3605 9.84037 24.3605H18.1603C19.9205 24.3605 21.3605 22.9206 21.3605 21.1604V19.8803H15.6002V5.63425C16.0645 5.32289 16.4338 4.88086 16.654 4.36062H20.6502L16.8807 13.1602L16.8783 13.1652L16.8807 13.1661C16.8842 16.1673 19.4617 18.6002 22.6405 18.6002C25.8224 18.6002 28.4003 16.1639 28.4003 13.1602H28.3934ZM8.25878 11.3655H2.462L4.80476 5.07787C4.98048 5.13083 5.1666 5.16004 5.35965 5.16004C5.5527 5.16004 5.73981 5.13083 5.91603 5.07737L8.25878 11.3655ZM19.735 11.3655L22.0832 5.07787C22.2594 5.13133 22.446 5.16053 22.6395 5.16053C22.8331 5.16053 23.0197 5.13133 23.1959 5.07787L25.5392 11.3655H19.735Z" fill="url(#paint0_linear_851_1843)"/>
</g>
<defs>
<linearGradient id="paint0_linear_851_1843" x1="-7.35422" y1="31.9373" x2="35.1415" y2="29.9225" gradientUnits="userSpaceOnUse">
<stop offset="0.188809" stop-color="#99CEFF"/>
<stop offset="1" stop-color="#3F94E1"/>
</linearGradient>
<clipPath id="clip0_851_1843">
<rect width="28" height="24" fill="white" transform="translate(0 0.360535)"/>
</clipPath>
</defs>
</svg>
