<svg width="24" height="28" viewBox="0 0 24 28" fill="none" xmlns="http://www.w3.org/2000/svg">
<path d="M1.01345 15.6896H4.3772C4.81398 15.6896 5.15036 16.0326 5.20056 16.4661C5.64404 20.2917 9.32408 23.1417 13.4242 22.2028C15.8407 21.6489 17.8037 19.6892 18.361 17.2744C19.3701 12.8982 16.0566 8.99554 11.8494 8.99554V11.5058C11.8494 11.8438 11.6452 12.1501 11.3323 12.279C11.0193 12.4078 10.6612 12.3359 10.4202 12.0965L5.39971 7.07603C5.07338 6.7497 5.07338 6.2192 5.39971 5.89287L10.4202 0.872352C10.6612 0.634715 11.0193 0.562754 11.3323 0.691614C11.6452 0.820473 11.8494 1.12672 11.8494 1.46477V3.97503C18.366 3.97503 23.656 9.32187 23.5623 15.8603C23.4736 22.0757 18.2422 27.3104 12.0268 27.4041C5.78294 27.4978 0.621855 22.6781 0.16666 16.5698C0.131517 16.0929 0.53483 15.6896 1.01345 15.6896Z" fill="url(#paint0_linear_851_1852)"/>
<defs>
<linearGradient id="paint0_linear_851_1852" x1="29.2138" y1="35.859" x2="-5.34883" y2="34.6657" gradientUnits="userSpaceOnUse">
<stop offset="0.188809" stop-color="#99CEFF"/>
<stop offset="1" stop-color="#3F94E1"/>
</linearGradient>
</defs>
</svg>
